<svg id="Layer_1" data-name="Layer 1" xmlns="http://www.w3.org/2000/svg" viewBox="0 0 64 64"><title>chat</title><g id="Page-1"><g id="AYUDA-Iconos"><g id="Group-3"><path id="_-copy" data-name="-copy" d="M18.88,26.38a3.75,3.75,0,1,1-3.75,3.75A3.74,3.74,0,0,1,18.88,26.38Zm13.12,0a3.75,3.75,0,1,1-3.75,3.75A3.74,3.74,0,0,1,32,26.38Zm13.13,0a3.75,3.75,0,1,1-3.75,3.75A3.74,3.74,0,0,1,45.13,26.38ZM32,5.75c16.57,0,30,10.91,30,24.38S48.57,54.5,32,54.5a36,36,0,0,1-10.88-1.68,28.38,28.38,0,0,1-16.3,5.43A2.82,2.82,0,0,1,2.77,53.5a29.81,29.81,0,0,0,5.44-8.58A21.51,21.51,0,0,1,2,30.13C2,16.66,15.44,5.75,32,5.75Zm0,43.12c13.44,0,24.38-8.41,24.38-18.74S45.44,11.38,32,11.38,7.63,19.79,7.63,30.13A16.07,16.07,0,0,0,12.3,41.07l2.41,2.55-1.24,3.3a30.38,30.38,0,0,1-2.33,4.71,25.22,25.22,0,0,0,6.73-3.4l2.29-1.62,2.66.85A30.65,30.65,0,0,0,32,48.87Z"/></g></g></g></svg>