<svg id="Layer_1" data-name="Layer 1" xmlns="http://www.w3.org/2000/svg" viewBox="0 0 64 64"><title>faq</title><polygon points="6.5 23.83 6.5 28.96 15.49 28.96 15.49 32.57 6.5 32.57 6.5 39.65 2 39.65 2 20.22 16.68 20.22 16.68 23.83 6.5 23.83"/><path d="M30.28,20.22H25.84L17.18,39.65h4.61l1.72-4.17h9l1.72,4.17H39ZM25,32.07,28,24.63l3.08,7.44Z"/><path d="M60,39.34a4.21,4.21,0,0,1-3.16,1.44,3.59,3.59,0,0,1-2.75-1.36A9.77,9.77,0,0,0,61,29.93c0-5.8-4.52-10-10.63-10s-10.63,4.27-10.63,10a9.92,9.92,0,0,0,9.08,10c3,3.16,5,4.21,7.9,4.21A6.6,6.6,0,0,0,62,41.73ZM44.32,29.93a6.08,6.08,0,1,1,12.16,0,6.08,6.08,0,1,1-12.16,0Z"/></svg>