<svg id="Layer_1" data-name="Layer 1" xmlns="http://www.w3.org/2000/svg" viewBox="0 0 64 64"><title>msg</title><g id="Page-1"><g id="AYUDA-Iconos"><g id="Group-2"><path id="_" data-name="" d="M56.37,9.5A5.63,5.63,0,0,1,62,15.13V48.88a5.63,5.63,0,0,1-5.63,5.62H7.62A5.62,5.62,0,0,1,2,48.88V15.13A5.63,5.63,0,0,1,7.62,9.5Zm0,5.63H7.62v4.78c2.63,2.14,6.82,5.46,15.78,12.48,2,1.55,5.88,5.28,8.6,5.23s6.63-3.68,8.6-5.23c9-7,13.15-10.34,15.77-12.48ZM7.62,48.88H56.37V27.12c-2.68,2.14-6.49,5.15-12.29,9.69C41.43,38.89,37,43.28,32,43.25s-9.52-4.42-12.08-6.44c-5.8-4.55-9.61-7.55-12.3-9.69Z"/></g></g></g></svg>