<svg id="Layer_1" data-name="Layer 1" xmlns="http://www.w3.org/2000/svg" viewBox="0 0 64 64"><title>size</title><g id="Page-1"><g id="AYUDA-Iconos"><g id="Group-4"><g id="Stroke-1"><path d="M17,60.35a4.46,4.46,0,0,1-3.51-1.64L3.3,48.18A4.84,4.84,0,0,1,2,44.78a4.72,4.72,0,0,1,1.57-3.45l6.36-5.76-.06,0,6.76-6-.05-.05,6.7-6v0L30,17.33h0l6.71-6.06h0l7-6.33a5.11,5.11,0,0,1,3.41-1.27h0a4.44,4.44,0,0,1,3.5,1.64L60.78,15.86A4.83,4.83,0,0,1,62,19.32a4.66,4.66,0,0,1-1.58,3.39l-40,36.37A5.08,5.08,0,0,1,17,60.35ZM10.33,40.27,6.11,44.09a.94.94,0,0,0-.36.74,1.09,1.09,0,0,0,.29.8L16.25,56.21a.81.81,0,0,0,.72.39h0a1.33,1.33,0,0,0,.93-.32l40-36.36a.93.93,0,0,0,.33-.74,1.07,1.07,0,0,0-.24-.79L47.78,7.79a.81.81,0,0,0-.71-.39h0a1.31,1.31,0,0,0-.92.32L42,11.46l6.3,6.66a2.52,2.52,0,0,1-.15,3.75L47,23a2.66,2.66,0,0,1-3.47-.19L37,16l-1.66,1.5,2.28,2.39a2.44,2.44,0,0,1,.75,1.76,2.55,2.55,0,0,1-.9,1.89l-1.14,1a2.53,2.53,0,0,1-3.72-.15l-2.29-2.37-1.67,1.5L35,30.23a2.6,2.6,0,0,1,.76,1.92A2.55,2.55,0,0,1,34.87,34l-1.28,1.16A2.63,2.63,0,0,1,30.14,35l-6.53-6.81L22,29.66l2.28,2.39A2.41,2.41,0,0,1,25,33.8a2.6,2.6,0,0,1-.9,1.9l-1.15,1a2.34,2.34,0,0,1-1.7.72h0a2.56,2.56,0,0,1-1.9-.88L17,34.19l-1.74,1.54,6.36,6.63a2.44,2.44,0,0,1,.76,1.76,2.6,2.6,0,0,1-.91,1.9l-1,1a2.55,2.55,0,0,1-3.76-.1Zm8.57,3ZM32.35,31.21h0ZM45.59,19.14h0Z"/></g></g></g></g></svg>